<svg xmlns="http://www.w3.org/2000/svg" viewBox="0 0 32 32">
  <circle cx="16" cy="16" r="14" fill="#ffffff" stroke="#000000" stroke-width="2"/>
  <path d="M16 4 L24 12 L16 20 L8 12 Z" fill="#000000"/>
  <path d="M16 12 L24 20 L16 28 L8 20 Z" fill="#000000"/>
  <path d="M4 16 L12 8 L20 16 L12 24 Z" fill="#000000"/>
  <path d="M28 16 L20 8 L12 16 L20 24 Z" fill="#000000"/>
  <path d="M16 4 L28 16 L16 20 L24 12 Z" fill="#000000"/>
  <path d="M16 20 L28 16 L20 24 L16 28 Z" fill="#000000"/>
  <path d="M4 16 L16 4 L8 12 L16 20 Z" fill="#000000"/>
  <path d="M16 20 L8 20 L16 28 L20 24 Z" fill="#000000"/>
</svg>
